<svg width="1440" height="227" viewBox="0 0 1440 227" fill="none" xmlns="http://www.w3.org/2000/svg">
<path fill-rule="evenodd" clip-rule="evenodd" d="M2 110.23L41.6 98.6491C82.4 87.068 161.6 63.9057 242 52.3246C322.4 40.7434 401.6 40.7434 482 34.9529C562.4 29.1623 641.6 17.5811 722 17.5811C802.4 17.5811 881.6 29.1623 962 81.2774C1042.4 133.392 1121.6 226.042 1202 226.042C1282.4 226.042 1361.6 133.392 1402.4 87.068L1442 40.7434V6.00002H1402.4C1361.6 6.00002 1282.4 6.00002 1202 6.00002C1121.6 6.00002 1042.4 6.00002 962 6.00002C881.6 6.00002 802.4 6.00002 722 6.00002C641.6 6.00002 562.4 6.00002 482 6.00002C401.6 6.00002 322.4 6.00002 242 6.00002C161.6 6.00002 82.4 6.00002 41.6 6.00002H2V110.23Z" fill="#ED5176"/>
<path fill-rule="evenodd" clip-rule="evenodd" d="M0 104.23L39.6 92.6491C80.4 81.068 159.6 57.9057 240 46.3246C320.4 34.7434 399.6 34.7434 480 28.9529C560.4 23.1623 639.6 11.5811 720 11.5811C800.4 11.5811 879.6 23.1623 960 75.2774C1040.4 127.392 1119.6 220.042 1200 220.042C1280.4 220.042 1359.6 127.392 1400.4 81.068L1440 34.7434V1.52588e-05H1400.4C1359.6 1.52588e-05 1280.4 1.52588e-05 1200 1.52588e-05C1119.6 1.52588e-05 1040.4 1.52588e-05 960 1.52588e-05C879.6 1.52588e-05 800.4 1.52588e-05 720 1.52588e-05C639.6 1.52588e-05 560.4 1.52588e-05 480 1.52588e-05C399.6 1.52588e-05 320.4 1.52588e-05 240 1.52588e-05C159.6 1.52588e-05 80.4 1.52588e-05 39.6 1.52588e-05H0V104.23Z" fill="#EDBA4F"/>
</svg>
