<svg width="94" height="91" viewBox="0 0 94 91" fill="none" xmlns="http://www.w3.org/2000/svg">
<g clip-path="url(#clip0_121_27)">
<mask id="mask0_121_27" style="mask-type:luminance" maskUnits="userSpaceOnUse" x="0" y="0" width="94" height="91">
<path d="M0 0H94V91H0V0Z" fill="white"/>
</mask>
<g mask="url(#mask0_121_27)">
<path d="M32.1288 0.177261C37.3723 1.44771 41.4995 5.89431 43.497 12.4091C44.437 15.4744 44.8482 19.2784 44.5398 22.0483C43.9376 27.5216 41.3673 31.8131 37.5559 33.7409C36.2634 34.3909 34.9709 34.7307 33.7371 34.7307C32.753 34.7307 31.8865 34.5534 30.8951 34.1545C24.9173 31.7392 20.7827 25.5716 19.8868 17.7273C19.7326 16.346 19.7693 13.6574 19.9676 12.0398C20.2613 9.63181 20.6065 8.34658 21.407 6.68465C22.6627 4.07726 24.4252 2.14942 26.5843 1.04146C27.8915 0.36192 28.971 0.0812385 30.4398 0.0295339C31.2696 0.00737486 31.4899 0.0221475 32.1288 0.177261Z" fill="white"/>
<path d="M65.9321 0.480102C68.9283 1.02669 71.6602 3.31646 73.3199 6.67726C74.8768 9.82385 75.3027 14.2483 74.4949 18.8943C73.4668 24.8182 70.4632 29.8114 66.1891 32.6921C65.2491 33.3273 63.6922 34.1029 62.6347 34.4574C61.8857 34.7085 61.6947 34.7381 60.8649 34.775C59.7633 34.8193 58.9775 34.7159 58.0155 34.4057C56.5247 33.9256 55.3057 33.1722 54.16 32.0199C51.8908 29.7375 50.4808 26.3028 50.1504 22.2477C50.0182 20.5784 50.165 18.0966 50.5249 16.154C51.81 9.12214 55.5921 3.59714 60.6593 1.35908C62.6347 0.487489 64.3752 0.199421 65.9321 0.480102Z" fill="white"/>
<path d="M10.2591 27.433C15.1134 28.2381 19.3948 31.6136 22.0385 36.7398C23.2943 39.1699 23.9552 41.2676 24.4326 44.3182C24.6015 45.4188 24.6309 45.8324 24.6309 47.0881C24.6309 48.6244 24.5427 49.3852 24.227 50.6261C23.3824 53.9574 21.3923 56.6682 18.9174 57.8722C17.5662 58.5295 16.3324 58.7733 14.9445 58.6477C11.5737 58.3523 8.57006 56.8233 5.89693 54.046C2.95209 50.9807 0.925212 46.7409 0.264274 42.2869C0.0953685 41.1716 -0.0221315 38.9926 0.0292748 38.0989C0.300993 33.4972 2.75381 29.4642 6.16865 27.9869C7.49053 27.4182 8.94459 27.2187 10.2591 27.433Z" fill="white"/>
<path d="M86.2817 29.3682C89.4762 29.9074 92.164 32.1528 93.1554 35.1221C93.5079 36.171 93.8017 37.6704 93.9265 39.0369C94.3818 43.9932 92.656 49.5551 89.3881 53.6988C88.6684 54.6074 87.251 56.0403 86.3478 56.7494C84.2621 58.4113 81.7432 59.6006 79.3932 60.0511C78.769 60.1693 77.2929 60.1545 76.6981 60.0216C74.0617 59.4454 71.8365 57.5988 70.5734 54.9324C69.7949 53.2926 69.3984 51.2023 69.3984 48.7426C69.3984 47.2284 69.4718 46.4011 69.7362 44.9977C70.7423 39.5909 74.0103 34.5312 78.4165 31.5545C79.6209 30.7346 81.332 29.8631 82.2646 29.5898C83.4323 29.25 85.0553 29.1613 86.2817 29.3682Z" fill="white"/>
<path d="M48.175 47.3835C50.7306 47.6716 53.2568 48.3585 55.7464 49.4591C59.5504 51.1506 63.2223 53.9648 65.5943 57.0227C70.7129 63.6261 74.2673 70.7761 75.714 77.3722C75.8022 77.7784 75.9564 78.3915 76.0518 78.7386C76.5439 80.5335 76.4631 82.5722 75.8242 84.3523C74.7961 87.2182 72.5709 89.4415 69.817 90.3722C68.172 90.9261 65.7118 90.9187 62.9726 90.3426C61.1881 89.9733 59.8515 89.5449 56.0622 88.1341C50.7893 86.1619 49.3279 85.7852 45.7809 85.4528C44.1946 85.3051 43.9082 85.2977 42.814 85.379C40.0161 85.5784 37.8056 86.1915 33.5609 87.9347C29.8009 89.4784 27.7006 90.3131 27.1718 90.4608C21.8843 91.9676 16.6336 90.1136 14.8343 86.1028C14.0486 84.3375 13.9604 81.4642 14.6214 78.7386C15.2676 76.0869 17.1843 71.7807 19.0203 68.8778C24.1903 60.6937 27.9136 56.1068 32.1656 52.65C36.1973 49.3852 39.5461 47.8489 43.7026 47.3835C44.8703 47.2506 46.9853 47.2506 48.175 47.3835Z" fill="white"/>
</g>
</g>
<defs>
<clipPath id="clip0_121_27">
<rect width="94" height="91" fill="white"/>
</clipPath>
</defs>
</svg>
