<svg width="102" height="95" viewBox="0 0 102 95" fill="none" xmlns="http://www.w3.org/2000/svg">
<g clip-path="url(#clip0_93_1561)">
<mask id="mask0_93_1561" style="mask-type:luminance" maskUnits="userSpaceOnUse" x="17" y="0" width="68" height="65">
<path d="M17.8322 0H84.8811V64.9091H17.8322V0Z" fill="white"/>
</mask>
<g mask="url(#mask0_93_1561)">
<path d="M40.7492 0.126429C44.4893 1.03262 47.4332 4.20433 48.858 8.85123C49.5285 11.0377 49.8218 13.751 49.6018 15.7267C49.1723 19.6308 47.3389 22.6918 44.6203 24.0669C43.6984 24.5306 42.7764 24.7729 41.8964 24.7729C41.1944 24.7729 40.5764 24.6465 39.8692 24.3619C35.6053 22.6391 32.6562 18.2399 32.0171 12.6446C31.9072 11.6594 31.9333 9.74163 32.0748 8.58781C32.2843 6.87023 32.5305 5.9535 33.1015 4.76806C33.9972 2.90825 35.2543 1.53314 36.7944 0.742852C37.7268 0.258144 38.4968 0.0579372 39.5445 0.021057C40.1363 0.00525121 40.2935 0.0157884 40.7492 0.126429Z" fill="#ED5176"/>
<path d="M64.8607 0.342438C66.9978 0.732315 68.9464 2.36558 70.1303 4.76279C71.2408 7.00721 71.5446 10.1631 70.9684 13.477C70.2351 17.7025 68.0926 21.2641 65.044 23.3188C64.3735 23.7719 63.263 24.3251 62.5087 24.578C61.9744 24.7571 61.8382 24.7782 61.2463 24.8045C60.4605 24.8361 59.9 24.7624 59.2138 24.5411C58.1505 24.1987 57.281 23.6613 56.4638 22.8393C54.8452 21.2113 53.8394 18.7614 53.6038 15.869C53.5095 14.6783 53.6142 12.908 53.8709 11.5224C54.7875 6.50669 57.4853 2.56578 61.0996 0.969404C62.5087 0.347707 63.7501 0.142232 64.8607 0.342438Z" fill="#ED5176"/>
<path d="M25.1498 19.5676C28.6123 20.1418 31.6662 22.5495 33.5519 26.206C34.4477 27.9393 34.9191 29.4356 35.2596 31.6116C35.3801 32.3966 35.401 32.6916 35.401 33.5873C35.401 34.6831 35.3381 35.2258 35.113 36.1109C34.5105 38.4871 33.091 40.4206 31.3257 41.2794C30.3619 41.7483 29.4818 41.9222 28.4919 41.8326C26.0875 41.6219 23.9451 40.5313 22.0384 38.5503C19.9379 36.3638 18.4921 33.3396 18.0207 30.1627C17.9002 29.3671 17.8164 27.8129 17.8531 27.1754C18.0469 23.8931 19.7964 21.0164 22.2322 19.9627C23.1751 19.557 24.2122 19.4147 25.1498 19.5676Z" fill="#ED5176"/>
<path d="M79.3757 20.9479C81.6543 21.3325 83.5715 22.9342 84.2787 25.0521C84.5301 25.8003 84.7396 26.8698 84.8287 27.8445C85.1534 31.3798 83.9224 35.347 81.5915 38.3026C81.0781 38.9507 80.0671 39.9728 79.4229 40.4786C77.9352 41.664 76.1385 42.5123 74.4623 42.8336C74.017 42.918 72.9641 42.9074 72.5399 42.8126C70.6594 42.4016 69.0722 41.0844 68.1712 39.1825C67.6159 38.0129 67.3331 36.5219 67.3331 34.7674C67.3331 33.6874 67.3855 33.0973 67.574 32.0963C68.2917 28.2397 70.6227 24.6306 73.7656 22.5074C74.6247 21.9226 75.8452 21.3009 76.5104 21.106C77.3433 20.8636 78.501 20.8004 79.3757 20.9479Z" fill="#ED5176"/>
<path d="M52.1948 33.798C54.0176 34.0035 55.8195 34.4934 57.5953 35.2785C60.3087 36.485 62.9278 38.4924 64.6197 40.6735C68.2707 45.3836 70.806 50.4836 71.838 55.1885C71.9009 55.4783 72.0109 55.9156 72.0789 56.1632C72.4299 57.4435 72.3723 58.8976 71.9166 60.1674C71.1832 62.2116 69.596 63.7974 67.6317 64.4613C66.4584 64.8564 64.7035 64.8511 62.7497 64.4401C61.4768 64.1767 60.5234 63.8712 57.8206 62.8649C54.0595 61.4581 53.0171 61.1894 50.4871 60.9523C49.3556 60.847 49.1513 60.8417 48.3708 60.8997C46.3751 61.0419 44.7984 61.4792 41.7707 62.7226C39.0888 63.8237 37.5906 64.4191 37.2135 64.5245C33.442 65.5992 29.6967 64.2768 28.4133 61.416C27.8528 60.1568 27.7899 58.1073 28.2614 56.1632C28.7223 54.2717 30.0895 51.2002 31.3991 49.1296C35.0868 43.292 37.7426 40.0202 40.7755 37.5545C43.6512 35.2258 46.0399 34.13 49.0047 33.798C49.8376 33.7032 51.3462 33.7032 52.1948 33.798Z" fill="#ED5176"/>
</g>
</g>
<path d="M34.6891 76.9065C34.4741 77.2649 33.847 78.2683 33.2915 79.1642C32.754 80.0421 31.213 82.5506 29.8871 84.7187C28.5612 86.8868 26.6977 89.9328 25.7302 91.4737C24.7805 93.0326 24.01 94.3406 24.01 94.3944C24.01 94.4481 24.2788 94.4839 24.6192 94.4839H25.2285L30.4067 86.1521C33.2378 81.5652 35.6029 77.8203 35.6567 77.8203C35.7104 77.8203 36.9468 79.7554 38.416 82.1206L41.1037 86.4209H41.7846C42.1609 86.4209 42.4655 86.3851 42.4655 86.3492C42.4655 86.2955 41.1037 84.0557 39.4553 81.3681C36.4809 76.5661 36.4092 76.4765 35.7642 76.369C35.137 76.2615 35.0654 76.2973 34.6891 76.9065Z" fill="#ED145B"/>
<path d="M0 85.4892V94.5915L0.627126 94.5198L1.25425 94.4481V86.0446V77.6411H8.24223H15.2302V77.014V76.3869H7.6151H0V85.4892Z" fill="#ED145B"/>
<path d="M19.3514 85.4713V94.5735H19.9785H20.6056V85.4713V76.3869H19.9785H19.3514V85.4713Z" fill="#ED145B"/>
<path d="M5.01703 85.7938V86.4209H8.24225H11.4675V85.7938V85.1666H8.24225H5.01703V85.7938Z" fill="#ED145B"/>
<path d="M43.3612 89.9328C43.3612 90.0045 43.9884 91.0437 44.7588 92.2621C46.1385 94.466 46.1385 94.4839 46.8194 94.4839H47.5003L47.0882 93.8031C46.8552 93.4268 46.2281 92.3696 45.6906 91.4737C44.723 89.8791 44.6872 89.8253 44.0421 89.8253C43.6658 89.8253 43.3612 89.8791 43.3612 89.9328Z" fill="#ED145B"/>
<path d="M51.0789 94.0075C51.0646 93.5614 51.0575 93.1084 51.0575 92.6485C51.0575 92.2024 51.0575 91.7564 51.0575 91.3104C51.0575 89.2614 51.1003 87.2751 51.1859 85.3516C51.2715 83.4141 51.3714 81.5672 51.4855 79.8109C50.9148 79.9503 50.4368 80.0827 50.0515 80.2082L49.2168 76.8629C49.916 76.6538 50.6508 76.4726 51.4213 76.3193C52.2061 76.152 52.9695 76.0196 53.7115 75.922C54.4677 75.8105 55.1597 75.7338 55.7876 75.692C56.4297 75.6363 56.9576 75.6084 57.3714 75.6084C57.8137 75.6084 58.356 75.6432 58.9981 75.7129C59.6544 75.7826 60.3251 75.929 61.01 76.152C61.7091 76.3611 62.3584 76.6817 62.9577 77.1138C63.5569 77.5459 64.0421 78.1313 64.4131 78.8701C64.7983 79.5949 64.991 80.5079 64.991 81.609C64.991 82.752 64.7341 83.7068 64.2204 84.4734C63.7068 85.2261 63.029 85.8324 62.1871 86.2924C61.3453 86.7385 60.4178 87.059 59.4047 87.2542C58.3916 87.4493 57.3928 87.5469 56.4083 87.5469C55.7804 87.5469 55.1811 87.519 54.6104 87.4633C54.5962 88.1323 54.589 88.7944 54.589 89.4495C54.589 90.3416 54.5962 91.171 54.6104 91.9376C54.6247 92.6903 54.6532 93.3524 54.696 93.9239L51.0789 94.0075ZM57.2644 79.0373C56.8934 79.0373 56.5081 79.0513 56.1086 79.0791C55.7234 79.107 55.3381 79.1419 54.9529 79.1837C54.8815 79.9224 54.8244 80.7239 54.7816 81.5881C54.7388 82.4523 54.7032 83.3374 54.6746 84.2434C55.2025 84.2852 55.7519 84.3062 56.3227 84.3062C59.7472 84.3062 61.4594 83.3165 61.4594 81.3372C61.4594 80.5566 61.117 79.9782 60.4321 79.6018C59.7472 79.2255 58.6913 79.0373 57.2644 79.0373ZM74.3927 94.1539C73.3082 94.1539 72.3308 94.0772 71.4604 93.9239C70.6043 93.7845 69.8766 93.5057 69.2773 93.0875C68.678 92.6833 68.2214 92.084 67.9075 91.2894C67.5936 90.4949 67.4366 89.4565 67.4366 88.1741C67.4366 87.2403 67.4866 86.2715 67.5864 85.2679C67.6863 84.2643 67.8076 83.2956 67.9503 82.3617C68.1073 81.4139 68.2571 80.5706 68.3998 79.8318C68.1144 79.8736 67.8718 79.9155 67.672 79.9573L67.2654 76.6329C67.9645 76.5074 68.7708 76.4029 69.684 76.3193C70.6114 76.2217 71.5888 76.1381 72.6162 76.0684C73.6578 75.9987 74.6923 75.9499 75.7197 75.922C76.747 75.8802 77.7102 75.8593 78.6091 75.8593C79.3225 75.8593 79.9717 75.8732 80.5568 75.9011C81.1561 75.915 81.6483 75.9429 82.0336 75.9847L81.8624 79.4764C81.4771 79.4067 80.9563 79.3579 80.2999 79.33C79.6436 79.2882 78.9087 79.2673 78.0954 79.2673C77.1394 79.2673 76.1192 79.2882 75.0347 79.33C73.9503 79.3719 72.9158 79.4206 71.9313 79.4764C71.8171 80.0618 71.7173 80.6612 71.6316 81.2745C71.546 81.8878 71.4676 82.4941 71.3962 83.0935C72.2238 82.982 73.1299 82.8983 74.1144 82.8426C75.1132 82.7729 76.1049 82.7241 77.0895 82.6962C78.074 82.6544 78.9587 82.6335 79.7435 82.6335C80.2001 82.6335 80.6067 82.6405 80.9634 82.6544C81.3201 82.6544 81.6127 82.6683 81.841 82.6962L81.7554 86.1252C81.5699 86.1112 81.313 86.1042 80.9848 86.1042C80.6709 86.0903 80.2999 86.0833 79.8719 86.0833C79.2583 86.0833 78.5734 86.0973 77.8172 86.1252C77.0609 86.1391 76.2761 86.167 75.4628 86.2088C74.6637 86.2367 73.8861 86.2785 73.1299 86.3342C72.3736 86.3761 71.6887 86.4318 71.0752 86.5015C71.0181 87.2821 70.9895 87.9093 70.9895 88.3832C70.9895 89.0662 71.0823 89.568 71.2678 89.8886C71.4533 90.2092 71.7601 90.4183 72.1881 90.5159C72.6304 90.5995 73.2083 90.6413 73.9218 90.6413C75.1917 90.6413 76.5544 90.5368 78.0098 90.3277C79.4795 90.1186 80.9278 89.7911 82.3546 89.345L82.5901 92.983C80.8778 93.443 79.3225 93.7496 77.9242 93.903C76.5401 94.0702 75.3629 94.1539 74.3927 94.1539ZM91.3625 94.1539C91.2627 92.9412 91.1913 91.7633 91.1485 90.6204C91.12 89.4774 91.1057 88.3972 91.1057 87.3796C91.1057 85.6931 91.1414 84.1807 91.2127 82.8426C91.2841 81.4906 91.3554 80.3266 91.4267 79.3509C90.1996 79.4206 89.0082 79.5112 87.8524 79.6227C86.6966 79.7343 85.6265 79.8806 84.6419 80.0618L84.6847 76.5702C86.3542 76.2775 88.0664 76.0684 89.8215 75.9429C91.5766 75.8035 93.3316 75.7338 95.0867 75.7338C96.3424 75.7338 97.5409 75.7617 98.6825 75.8175C99.8383 75.8732 100.944 75.9569 102 76.0684L101.979 79.6855C100.98 79.5321 99.8952 79.4276 98.7253 79.3719C97.5695 79.3022 96.3852 79.2673 95.1723 79.2673C95.101 80.2151 95.0368 81.2745 94.9797 82.4453C94.9226 83.6023 94.8941 84.8428 94.8941 86.167C94.8941 87.3517 94.9226 88.5993 94.9797 89.9095C95.051 91.2197 95.1366 92.5997 95.2365 94.0493L91.3625 94.1539Z" fill="#ED5176"/>
<defs>
<clipPath id="clip0_93_1561">
<rect width="67.049" height="64.9091" fill="white" transform="translate(17.8322)"/>
</clipPath>
</defs>
</svg>
